inDegrees=yes
name=ik_coleta2_trike_1hz_mov
DataType=double
version=3
OpenSimVersion=4.4-2022-07-23-0e9fedc
endheader
time	hip_flexion_r	knee_angle_r	hip_flexion_l	knee_angle_l	gearToGround_coord_0
35.02445006370544	99.38977140598369	-104.8836644624408	97.07134425385236	-69.85246475174057	-1294.354483607625
35.03945207595825	100.0312857844608	-105.5445113356508	96.18328321174292	-68.98222887713743	-1296.082944093607
35.04536700248718	100.6877705892716	-106.1999985630284	95.69892878109872	-68.49946067202177	-1297.834457359938
35.05137085914612	101.365875271893	-106.8553666793426	94.98769153861572	-67.60735023178846	-1299.629631551361
35.05542397499084	102.0615864906249	-107.5052075797109	94.33248726954086	-66.98179160185219	-1301.456886723556
35.06136107444763	102.7741685231234	-108.1474389602372	93.65276180165934	-66.35237726167298	-1303.319744394729
35.06837105751038	103.5037679772235	-108.7807794997584	92.81450416552988	-65.58705419675294	-1305.214729338031
35.07537913322449	104.2499033289207	-109.40345856314	92.23908867952328	-64.9848350803271	-1307.149076153911
35.08537483215332	105.011654607754	-110.0131611715122	91.43375224061428	-64.27370845194791	-1309.117086693282
35.09138298034668	105.7823156199576	-110.6034163031428	90.77568266106826	-63.66454077606007	-1311.103403512828
35.09536099433899	106.5660939433767	-111.1763310252855	90.10476360762271	-62.96981569846792	-1313.1284679608
35.09937191009521	107.3517269469048	-111.7229081124129	89.41686142034047	-62.38241268572458	-1315.155614910489
35.10845518112183	108.1552230884615	-112.2528619557115	88.70463626701455	-61.74481469013653	-1317.241350187751
35.12140512466431	108.9570729492197	-112.7522047006428	87.71868136211134	-60.76109017529503	-1319.336077003368
35.12538695335388	109.7703728106904	-113.2279805173996	87.34696197720766	-60.74189524984296	-1321.47554865794
35.13136887550354	110.5613394966136	-113.6603729441426	86.67596109200719	-60.24618547775827	-1323.574995008551
35.1404139995575	111.3593029733029	-114.0653597285395	86.01251220325952	-59.77008313119405	-1325.719619931693
35.14636611938477	112.1521965095063	-114.4355762203309	85.44532737424863	-59.3410596160659	-1327.88451473063
35.15037512779236	112.9350234350155	-114.7680483019381	84.82791227612796	-58.99711803963485	-1330.058825281174
35.15442085266113	113.7101934152366	-115.0631895848527	84.01709185665018	-58.19680004699516	-1332.259852725021
35.16040992736816	114.4761695550695	-115.3192193500052	83.68029576043847	-58.36741881752022	-1334.488714442362
35.16836810112	115.2272434022843	-115.5331899113474	83.13124778488663	-58.03134849027941	-1336.737537501922
35.17537093162537	115.9611487473739	-115.7035416877991	82.62802825546427	-57.91862241527556	-1339.007199869538
35.18037796020508	116.6845572781607	-115.8298850411241	82.12761516148011	-57.775708386651	-1341.330125647736
35.18942713737488	117.3795298572129	-115.9074972350343	81.66133509578397	-57.67334083303513	-1343.661409570445
35.19838404655457	118.0580520232019	-115.9357582430997	81.21450359558254	-57.62729650121521	-1346.04937119971
35.20837903022766	118.7138390188061	-115.9110267293711	80.79224775647299	-57.64196943657168	-1348.492057904937
35.21337890625	119.3418092988894	-115.8295797763808	80.3978423859417	-57.72050816090452	-1350.988997786933
35.21738314628601	119.9388735507081	-115.6871826492817	80.02219918474817	-57.83882877407512	-1353.549658110825
35.22536897659302	120.5007298039284	-115.4800067056161	79.66293719290813	-58.0046202457104	-1356.178870606691
35.22936487197876	121.0217868348241	-115.2025569891969	79.30777437760601	-58.20733886236003	-1358.886211696671
35.23337316513062	121.4944586751104	-114.8511084753543	78.94359333912945	-58.44820654092263	-1361.66326443667
35.23741006851196	121.9116491714064	-114.4222580644876	78.64149101192311	-58.85759012390144	-1364.50954005006
35.24238085746765	122.2649226893856	-113.9159497794087	78.49036834912204	-59.4379457591431	-1367.406716556792
35.2493748664856	122.5468455544015	-113.3368371014967	78.36585165772925	-60.09952584050868	-1370.325413472257
35.25337600708008	122.7534055006487	-112.692278859585	78.3042592983404	-60.87828393455501	-1373.234548380973
35.25739002227783	122.8824182636973	-112.0047003423172	78.38825647511997	-61.8624667484892	-1376.0629601791
35.26136803627014	123.189374718608	-111.5438297046405	78.34017912871376	-62.2762472222715	-1378.323976144214
35.26637196540833	123.2305362162808	-110.8371981985238	78.53852807149883	-63.51486182288571	-1381.18963510893
35.27242112159729	123.1746952460288	-110.0978722993693	78.48406707169698	-64.04395977131786	-1383.633264834892
35.27638387680054	123.0777739607875	-109.383227598169	78.63878356588488	-64.92948059050269	-1385.881359128341
35.28637504577637	122.9512017553894	-108.7018363503389	78.7231513267615	-65.56193976433916	-1387.935142704878
35.29044079780579	122.8059370252981	-108.0615989521909	78.90173031279335	-66.22252038613641	-1389.798718204958
35.296382188797	122.6462905846256	-107.4517504545608	79.01995338092671	-66.87211161507352	-1391.522748543515
35.30237102508545	122.4764630822751	-106.8708880489767	79.13433218797014	-67.54203237663789	-1393.120585326026
35.30738806724548	122.3043353119076	-106.3301692664461	79.31707200807683	-68.09088315186474	-1394.575549242733
35.31137990951538	122.130281423196	-105.8198602025042	79.43167827470515	-68.62785641645515	-1395.921466706435
35.31636905670166	121.9562355766626	-105.3378998212487	79.56332263938128	-69.14389731466822	-1397.171508987105
35.32140684127808	121.7831611054075	-104.8811664878344	79.67790074622991	-69.63987992282905	-1398.337813886941
35.32540416717529	121.6118012334194	-104.4471757745805	79.8110416260236	-70.09820167958573	-1399.430826543816
35.33137989044189	121.4426085767727	-104.0340867274165	79.92997254655589	-70.56610972066765	-1400.457708810197
35.33944582939148	121.2756927462885	-103.6391524628318	80.06260855915912	-70.95665710762523	-1401.429430584819
35.34538006782532	121.1112683016759	-103.2606598808196	80.1769424470414	-71.36563894453086	-1402.35010923806
35.34937906265259	120.9481661692074	-102.8952388349994	80.31389832313921	-71.74287330156041	-1403.2310505131
35.35337805747986	120.7876833898275	-102.5435888033671	80.41362955520823	-72.12305641590638	-1404.071689441438
35.358402967453	120.628628873395	-102.2023083728293	80.5308519182104	-72.48024656255286	-1404.88073822519
35.36737489700317	120.4716402292238	-101.8719750915848	80.65158793173858	-72.82371961610257	-1405.65822970505
35.37243580818176	120.3157280743593	-101.549704064221	80.7554319699691	-73.1687895522808	-1406.411177648399
35.37839698791504	120.1600394897959	-101.2332357421242	80.87804150438632	-73.49496944935463	-1407.14569677603
35.38437294960022	120.0051635763494	-100.9233209598809	80.97693772727813	-73.82809698249444	-1407.860576567356
35.39143395423889	119.8502040074636	-100.6177882954189	81.08948794505832	-74.14555695446283	-1408.560961372654
35.3943920135498	119.6953913184464	-100.3168114881519	81.20497141277333	-74.45687476557784	-1409.247200217212
35.40039110183716	119.5398863111245	-100.0184693383366	81.42124853994396	-74.83886251167601	-1409.923573045563
35.40342807769775	119.3825599700533	-99.72047331199201	81.42889522117166	-75.07848144734022	-1410.595881822826
35.40743684768677	119.2248004645925	-99.4252904915961	81.52816367663794	-75.40509205392831	-1411.258347890536
35.42039799690247	119.0641838027976	-99.12821953975333	81.71631651496138	-75.72534754328704	-1411.921397411263
35.42638301849365	118.9019536391716	-98.83171215700922	81.78027504318186	-76.0035938122315	-1412.580753611842
35.43136811256409	118.7374143857373	-98.53423953523192	81.88304095993529	-76.3151571062787	-1413.239297560858
35.43739581108093	118.5691349576856	-98.23326637117819	82.00180079111117	-76.62750239241079	-1413.902317907313
35.44636797904968	118.3973209743414	-97.92920315263852	82.13350009904538	-76.94067714968412	-1414.569316707057
35.45137095451355	118.2214145495083	-97.62107620186963	82.26291213158861	-77.26017512345993	-1415.242089380403
35.45940709114075	118.0411830146364	-97.30863339760343	82.3724334466565	-77.58578914124595	-1415.922036017171
35.46437501907349	117.8557188488382	-96.99025665972556	82.49684850787401	-77.92291158500743	-1416.611646420143
35.47042608261108	117.6656546568524	-96.66727823252806	82.62980951584046	-78.25921283460873	-1417.308804384769
35.47637486457825	117.4692709804638	-96.33674263536203	82.77527458713871	-78.58834944159379	-1418.019238872162
35.48944187164307	117.2673053502597	-96.00009369004586	82.91175386755519	-78.94313487962725	-1418.740377476081
35.49339294433594	117.0587861675549	-95.65587150805673	83.06406631409584	-79.28881371775267	-1419.47446101685
35.50036382675171	116.8438617396854	-95.30439486605022	83.2120362045102	-79.65434246943668	-1420.221482185131
35.50840902328491	116.6221158912197	-94.94521415219899	83.36730128037026	-80.02553834817323	-1420.982365646908
35.5163779258728	116.3927986726276	-94.57717575826477	83.5308357694074	-80.3992217347753	-1421.759208919823
35.52140307426453	116.1564698014748	-94.20143762812417	83.69596408671588	-80.78869481454159	-1422.549480656513
35.52638506889343	115.9124560664512	-93.81702573206127	83.86737131104039	-81.19563282412463	-1423.35539105843
35.53237795829773	115.6607185966293	-93.424051115056	84.22423693254017	-81.70107287620043	-1424.176554767657
35.53636193275452	115.401144756124	-93.02250939061646	84.2585335024291	-81.97351373230458	-1425.01300127272
35.5403950214386	115.1338995198919	-92.61280952049529	84.46129246806215	-82.39298544267584	-1425.864088195361
35.54438495635986	114.858577249495	-92.19447755486681	84.64104084978246	-82.81290324991227	-1426.730635243603
35.55339503288269	114.5752330423885	-91.76777162896958	84.91042525922862	-83.28105307940068	-1427.611940828273
35.55841493606567	114.2840948364374	-91.33315689010537	85.04324672504411	-83.68529673493768	-1428.507679201052
35.5623779296875	113.9845277874724	-90.88983129444186	85.28511700876027	-84.13441674192717	-1429.418674021076
35.56737494468689	113.6772382609275	-90.43901049516212	85.60874693562225	-84.671675185219	-1430.342948783066
35.57240009307861	113.3604710857583	-89.97804907092576	85.71118277068359	-85.04721353111097	-1431.286314928399
35.57637691497803	113.0392077451249	-89.51486604809513	85.97286301934162	-85.51731544945881	-1432.232161174933
35.58237314224243	112.7094180433997	-89.04316060862037	86.17088102238139	-86.00123776762943	-1433.194160622081
35.59238600730896	112.3722957212228	-88.5649345010447	86.42336852811107	-86.46884528355534	-1434.16769988531
35.60646295547485	112.0284257608726	-88.08110713775531	86.6791398737152	-86.94879966569606	-1435.151029801292
35.61236906051636	111.6787948568791	-87.59313871203786	86.96868904267036	-87.4359385287911	-1436.141929600794
35.61637020111084	111.3245054650884	-87.10257664536374	87.18757664748672	-87.96114590942821	-1437.137483344437
35.62040901184082	110.9648729568058	-86.60851397959949	87.46979581078409	-88.41158461300836	-1438.139270043652
35.62638783454895	110.6007794183916	-86.11215247642076	87.73006918739995	-88.91387547543314	-1439.145046879986
